<svg xmlns="http://www.w3.org/2000/svg" viewBox="0 0 480 640">
  <defs>
    <linearGradient id="a" x1="0" x2="1" y1="0" y2="1">
      <stop offset="0" stop-color="#f7f6f1"/>
      <stop offset="1" stop-color="#eee9ff"/>
    </linearGradient>
  </defs>
  <rect width="480" height="640" rx="34" fill="url(#a)"/>
  <rect x="34" y="34" width="412" height="56" rx="28" fill="#ffffff"/>
  <rect x="60" y="54" width="88" height="16" rx="8" fill="#101a2f"/>
  <rect x="322" y="54" width="78" height="16" rx="8" fill="#101a2f" opacity=".18"/>
  <rect x="34" y="124" width="224" height="326" rx="32" fill="#ffffff"/>
  <rect x="84" y="172" width="124" height="190" rx="46" fill="#9fe8c7"/>
  <rect x="108" y="214" width="76" height="112" rx="26" fill="#101a2f"/>
  <rect x="288" y="124" width="158" height="144" rx="28" fill="#101a2f"/>
  <text x="314" y="178" font-family="Inter, Arial, sans-serif" font-size="24" font-weight="900" fill="#ffffff">Product</text>
  <text x="314" y="209" font-family="Inter, Arial, sans-serif" font-size="24" font-weight="900" fill="#9fe8c7">Launch</text>
  <rect x="288" y="296" width="158" height="154" rx="28" fill="#ffffff"/>
  <rect x="314" y="326" width="88" height="12" rx="6" fill="#101a2f" opacity=".2"/>
  <rect x="314" y="354" width="104" height="12" rx="6" fill="#101a2f" opacity=".12"/>
  <rect x="314" y="386" width="84" height="34" rx="17" fill="#d7ccff"/>
  <rect x="34" y="482" width="412" height="86" rx="30" fill="#ffffff"/>
  <text x="62" y="535" font-family="Inter, Arial, sans-serif" font-size="22" font-weight="900" fill="#101a2f">Conversion-ready product page</text>
</svg>
