<svg xmlns="http://www.w3.org/2000/svg" viewBox="0 0 480 640">
  <defs>
    <linearGradient id="a" x1="0" x2="1" y1="0" y2="1">
      <stop offset="0" stop-color="#e7f7f4"/>
      <stop offset="1" stop-color="#f7f6f1"/>
    </linearGradient>
  </defs>
  <rect width="480" height="640" rx="34" fill="url(#a)"/>
  <rect x="34" y="34" width="412" height="236" rx="32" fill="#101a2f"/>
  <circle cx="378" cy="114" r="54" fill="#f8d28e"/>
  <path d="M34 232c70-56 118-76 172-48 48 25 78 35 130 7 39-21 69-21 110 5v74H34z" fill="#9fe8c7"/>
  <text x="62" y="104" font-family="Inter, Arial, sans-serif" font-size="34" font-weight="900" fill="#ffffff">Resort</text>
  <text x="62" y="145" font-family="Inter, Arial, sans-serif" font-size="34" font-weight="900" fill="#ffffff">Booking</text>
  <rect x="34" y="304" width="412" height="86" rx="28" fill="#ffffff"/>
  <rect x="62" y="332" width="92" height="14" rx="7" fill="#101a2f" opacity=".2"/>
  <rect x="62" y="358" width="250" height="12" rx="6" fill="#101a2f" opacity=".12"/>
  <rect x="338" y="326" width="72" height="36" rx="18" fill="#101a2f"/>
  <rect x="34" y="418" width="190" height="150" rx="28" fill="#ffffff"/>
  <rect x="256" y="418" width="190" height="150" rx="28" fill="#ffffff"/>
  <rect x="62" y="448" width="112" height="78" rx="22" fill="#efe3cf"/>
  <rect x="284" y="448" width="112" height="78" rx="22" fill="#d7ccff"/>
  <text x="62" y="601" font-family="Inter, Arial, sans-serif" font-size="21" font-weight="900" fill="#101a2f">Direct booking funnel</text>
</svg>
