<svg xmlns="http://www.w3.org/2000/svg" viewBox="0 0 480 640">
  <defs>
    <linearGradient id="a" x1="0" x2="1" y1="0" y2="1">
      <stop offset="0" stop-color="#e9f7f0"/>
      <stop offset="1" stop-color="#f7f6f1"/>
    </linearGradient>
  </defs>
  <rect width="480" height="640" rx="34" fill="url(#a)"/>
  <rect x="34" y="34" width="412" height="270" rx="36" fill="#101a2f"/>
  <text x="66" y="98" font-family="Inter, Arial, sans-serif" font-size="34" font-weight="900" fill="#ffffff">Supplement</text>
  <text x="66" y="139" font-family="Inter, Arial, sans-serif" font-size="34" font-weight="900" fill="#9fe8c7">Landing</text>
  <rect x="296" y="102" width="84" height="150" rx="28" fill="#ffffff"/>
  <rect x="312" y="128" width="52" height="96" rx="18" fill="#efe3cf"/>
  <rect x="66" y="204" width="116" height="38" rx="19" fill="#ffffff"/>
  <rect x="34" y="336" width="196" height="158" rx="30" fill="#ffffff"/>
  <rect x="250" y="336" width="196" height="158" rx="30" fill="#ffffff"/>
  <rect x="62" y="368" width="96" height="12" rx="6" fill="#101a2f" opacity=".22"/>
  <rect x="62" y="398" width="128" height="12" rx="6" fill="#101a2f" opacity=".12"/>
  <rect x="278" y="368" width="96" height="12" rx="6" fill="#101a2f" opacity=".22"/>
  <rect x="278" y="398" width="128" height="12" rx="6" fill="#101a2f" opacity=".12"/>
  <rect x="34" y="526" width="412" height="70" rx="28" fill="#ffffff"/>
  <text x="64" y="570" font-family="Inter, Arial, sans-serif" font-size="22" font-weight="900" fill="#101a2f">Offer-led sales page</text>
</svg>
